# xmcd CD database file
#
# Track frame offsets:
#	150
#	13806
#	28484
#	40515
#	53033
#	66017
#	80237
#	91152
#	103753
#	120986
#	155520
#	166872
#	179112
#	191608
#	202964
#
# Disc length: 2879 seconds
#
# Revision: 1
# Processed by: cddbd v1.5PL3 Copyright (c) Steve Scherf et al.
# Submitted via: CDex 1.51
#
DISCID=c60b3d0f
DTITLE=Nat King Cole - Les légendes du Jazz - Le meilleur de Nat King Cole
DYEAR=1900
DGENRE=Jazz
TTITLE0=Route 66
TTITLE1=Mona Lisa
TTITLE2=Autumn Leaves
TTITLE3=My Baby Just Cares For Me
TTITLE4=I Wish You Love
TTITLE5=Swee Lorraine
TTITLE6=Saint-Louis Blues
TTITLE7=Let's Fall In Love
TTITLE8=The Very Thought Of You
TTITLE9=Mr Cole won't Rock'n'Roll
TTITLE10=Lover Come Back To Me
TTITLE11=Caravan
TTITLE12=Quizas, Quizas, Quizas
TTITLE13=Vaya Con Dios
TTITLE14=The Girl From Ipanema
EXTD=
EXTT0=
EXTT1=
EXTT2=
EXTT3=
EXTT4=
EXTT5=
EXTT6=
EXTT7=
EXTT8=
EXTT9=
EXTT10=
EXTT11=
EXTT12=
EXTT13=
EXTT14=
PLAYORDER=
